<?xml version="1.0" encoding="UTF-8" standalone="no"?>
<!DOCTYPE svg PUBLIC "-//W3C//DTD SVG 1.1//EN" "http://www.w3.org/Graphics/SVG/1.1/DTD/svg11.dtd">
<svg width="100%" height="100%" viewBox="0 0 1832 744" version="1.1" xmlns="http://www.w3.org/2000/svg" xmlns:xlink="http://www.w3.org/1999/xlink" xml:space="preserve" xmlns:serif="http://www.serif.com/" style="fill-rule:evenodd;clip-rule:evenodd;stroke-linejoin:round;stroke-miterlimit:2;">
    <path d="M371.1,728.3C566.1,728.3 724.2,570.2 724.2,375.2C724.2,180.2 566.1,22.1 371.1,22.1C176.1,22.1 17.9,180.1 17.9,375.1C17.9,570.2 176,728.3 371.1,728.3" style="fill:rgb(106,38,59);fill-rule:nonzero;"/>
    <g>
        <path d="M886.6,79.3C936.8,79.3 974.1,112.1 974.1,167.5C974.1,222.9 936.6,255.7 886.3,255.7L814,255.7L814,79.3L886.6,79.3ZM850.3,224.6L886.9,224.6C917.6,224.6 938.1,205.5 938.1,167.5C938.1,129.5 917.8,110.4 886.9,110.4L850.3,110.4L850.3,224.6Z" style="fill-rule:nonzero;"/>
        <path d="M1032.6,205.7C1033.3,220.8 1042.5,230.5 1058.1,230.5C1070.1,230.5 1077.9,225.5 1080.5,217.1L1115.2,218.8C1111,241.9 1087.6,258.4 1059.1,258.4C1021.8,258.4 996.1,234.1 996.1,194.9C996.1,155.5 1021.8,131.4 1058.1,131.4C1093.2,131.4 1116.4,154 1116.4,192L1116.4,205.7L1032.6,205.7ZM1032.6,182.8L1081.7,182.8C1081,167.9 1073.4,158.3 1057.9,158.3C1043.3,158.3 1033.6,167.3 1032.6,182.8Z" style="fill-rule:nonzero;"/>
    </g>
    <g>
        <path d="M887.5,315.9C919.2,315.9 942.3,331.7 942.3,364.8C942.3,381.5 935,392.8 925.1,399.4C938.5,404.6 949.6,418.4 949.6,440.5C949.6,474.1 926.1,491.8 892.7,491.8L813.9,491.8L813.9,315.9L887.5,315.9ZM850,386.5L885.1,386.5C897.3,386.5 905.3,380.9 905.3,367.5C905.3,354.1 896.4,348 883.2,348L850,348L850,386.5ZM850.1,459.6L888.4,459.6C902.5,459.6 912.4,453.5 912.4,438.7C912.4,423.7 902.3,417.3 888.9,417.3L850.1,417.3L850.1,459.6Z" style="fill-rule:nonzero;"/>
        <path d="M1017.1,330.5C1017.1,341.8 1007.9,351 996.4,351C984.9,351 975.9,341.8 975.9,330.5C975.9,319 985.3,309.8 996.4,309.8C1007.9,309.8 1017.1,319 1017.1,330.5ZM979.2,491.9L979.2,370.3L1013.5,370.3L1013.5,491.9L979.2,491.9Z" style="fill-rule:nonzero;"/>
        <path d="M1082.2,503.6C1082.2,534.2 1062.2,553.4 1031.9,553.4C1026.7,553.4 1023.4,553.2 1019.9,552.7L1019.9,522.8C1022,523.3 1024.4,523.5 1027.9,523.5C1039.7,523.5 1047.9,516 1047.9,504.2L1047.9,370.2L1082.2,370.2L1082.2,503.6ZM1085.5,330.5C1085.5,341.8 1076.3,351 1064.8,351C1053.3,351 1044.3,341.8 1044.3,330.5C1044.3,319 1053.2,309.8 1064.8,309.8C1076.3,309.8 1085.5,319 1085.5,330.5Z" style="fill-rule:nonzero;"/>
        <rect x="1116" y="309.1" width="34.3" height="182.7" style="fill-rule:nonzero;"/>
        <path d="M1302.7,431.1C1302.7,469.2 1275.2,494.3 1238,494.3C1200.8,494.3 1173.3,469.1 1173.3,431.1C1173.3,392.8 1200.8,367.9 1238,367.9C1275.2,367.9 1302.7,392.8 1302.7,431.1ZM1208.2,431.1C1208.2,452.3 1220.4,464.7 1238.1,464.7C1255.7,464.7 1268,452.2 1268,431.1C1268,409.7 1255.8,397.2 1238.1,397.2C1220.4,397.3 1208.2,409.8 1208.2,431.1Z" style="fill-rule:nonzero;"/>
        <path d="M1403.6,370.3L1445.2,370.3L1399.4,422.3L1448.5,491.9L1406.9,491.9L1375.2,447.9L1364.4,459.7L1364.4,491.9L1330,491.9L1330,309.1L1364.3,309.1L1364.3,413.5L1403.6,370.3Z" style="fill-rule:nonzero;"/>
        <path d="M1495.3,442C1496,457 1505.2,466.7 1520.7,466.7C1532.7,466.7 1540.5,461.8 1543,453.3L1577.6,454.9C1573.4,477.9 1550.1,494.4 1521.6,494.4C1484.5,494.4 1458.8,470.2 1458.8,431.2C1458.8,391.9 1484.4,368 1520.6,368C1555.6,368 1578.7,390.6 1578.7,428.4L1578.7,442L1495.3,442ZM1495.3,419.2L1544.2,419.2C1543.5,404.4 1536,394.7 1520.5,394.7C1505.9,394.7 1496.2,403.6 1495.3,419.2Z" style="fill-rule:nonzero;"/>
    </g>
    <g>
        <g>
            <path d="M914.7,669.4L914.7,583.6L870.5,669L865,669L820.5,583.6L820.5,669.4L812.2,669.4L812.2,564.5L819.2,564.5L867.6,656.8L915.8,564.5L922.8,564.5L922.8,669.4L914.7,669.4Z" style="fill-rule:nonzero;"/>
            <path d="M995.6,669.4L995.6,657.3C992.9,663.3 985.6,670.6 973,670.6C957.2,670.6 947.1,659.1 947.1,642.4L947.1,598.4L954.8,598.4L954.8,641.4C954.8,654.4 962.1,663.1 974.4,663.1C987.4,663.1 995.2,652.6 995.2,640.9L995.2,598.3L1003.1,598.3L1003.1,669.3L995.6,669.3L995.6,669.4Z" style="fill-rule:nonzero;"/>
            <path d="M1028.4,662.9L1072.6,662.9L1072.6,669.4L1019,669.4L1019,664L1061.3,604.8L1020,604.8L1020,598.3L1070.6,598.3L1070.6,603.5L1028.4,662.9Z" style="fill-rule:nonzero;"/>
            <path d="M1098.1,571.5C1098.1,574.6 1095.4,577.2 1092.2,577.2C1089,577.2 1086.5,574.5 1086.5,571.5C1086.5,568.3 1089.2,565.6 1092.2,565.6C1095.4,565.6 1098.1,568.2 1098.1,571.5ZM1088.3,669.4L1088.3,598.4L1096.2,598.4L1096.2,669.4L1088.3,669.4Z" style="fill-rule:nonzero;"/>
            <path d="M1124,636.8C1124.4,653.9 1135.5,663.7 1149.9,663.7C1162.2,663.7 1170.7,658 1173.3,648.1L1181.2,648.7C1178,661.7 1166.5,670.6 1150.2,670.6C1130.6,670.6 1115.7,657.1 1115.7,633.9C1115.7,610.6 1130.3,597.2 1149.9,597.2C1170.2,597.2 1181.9,611.2 1181.9,631.8L1181.9,636.8L1124,636.8ZM1124,630.2L1174.2,630.2C1174.2,615.1 1165.9,604.1 1149.8,604.1C1135.5,604.1 1124.6,613.3 1124,630.2Z" style="fill-rule:nonzero;"/>
            <path d="M1244.8,598.4L1254.8,598.4L1223.1,629.5L1258.7,669.3L1248.3,669.3L1217.4,635.1L1209.3,643.1L1209.3,669.3L1201.4,669.3L1201.4,560.3L1209.3,560.3L1209.3,632.5L1244.8,598.4Z" style="fill-rule:nonzero;"/>
            <path d="M1329.2,623.2L1321.5,623.9C1320.1,611.4 1310.6,604 1298.1,604C1283.1,604 1272,614.7 1272,633.9C1272,653.1 1283.4,663.8 1298.2,663.8C1311.1,663.8 1319.8,656.8 1321.6,645.4L1329.3,646C1326.6,661.3 1315,670.7 1298.2,670.7C1278.7,670.7 1264,657.4 1264,634C1264,610.6 1278.6,597.3 1298.1,597.3C1314.6,597.1 1327.2,607.1 1329.2,623.2Z" style="fill-rule:nonzero;"/>
            <path d="M1350.1,636.8C1350.5,653.9 1361.6,663.7 1376,663.7C1388.3,663.7 1396.8,658 1399.4,648.1L1407.3,648.7C1404.1,661.7 1392.6,670.6 1376.3,670.6C1356.7,670.6 1341.8,657.1 1341.8,633.9C1341.8,610.6 1356.4,597.2 1376,597.2C1396.3,597.2 1408,611.2 1408,631.8L1408,636.8L1350.1,636.8ZM1350.1,630.2L1400.3,630.2C1400.3,615.1 1392,604.1 1375.9,604.1C1361.6,604.1 1350.6,613.3 1350.1,630.2Z" style="fill-rule:nonzero;"/>
            <path d="M1486,625.7L1486,669.3L1478.1,669.3L1478.1,626.7C1478.1,613.4 1469.5,604.4 1457.3,604.4C1444.3,604.4 1435.3,614.8 1435.3,626.7L1435.3,669.3L1427.4,669.3L1427.4,598.3L1435,598.3L1435,610.4C1438.1,603.8 1446.2,597.1 1458.6,597.1C1474.5,597.1 1486,608.5 1486,625.7Z" style="fill-rule:nonzero;"/>
            <path d="M1539.5,662.2L1539.5,669.4C1537.4,669.8 1534.6,670.1 1530.5,670.1C1518.9,670.1 1510.7,663.9 1510.7,648.6L1510.8,605.3L1497.3,605.3L1497.3,598.4L1510.8,598.4L1510.9,573.3L1518.9,573.3L1518.8,598.4L1539.1,598.4L1539.1,605.3L1518.8,605.3L1518.5,647.2C1518.5,658.8 1524.3,662.9 1532,662.9C1535.2,662.9 1537.7,662.5 1539.5,662.2Z" style="fill-rule:nonzero;"/>
            <path d="M1583,605C1569.8,605 1561.7,614.7 1561.7,626.2L1561.7,669.4L1553.8,669.4L1553.8,598.4L1561.4,598.4L1561.4,610C1563.8,603.8 1570.9,597.4 1583,597.4L1583,605Z" style="fill-rule:nonzero;"/>
            <path d="M1648.9,669.4L1648.9,657.3C1646.2,663.3 1638.9,670.6 1626.3,670.6C1610.5,670.6 1600.4,659.1 1600.4,642.4L1600.4,598.4L1608.1,598.4L1608.1,641.4C1608.1,654.4 1615.4,663.1 1627.7,663.1C1640.7,663.1 1648.5,652.6 1648.5,640.9L1648.5,598.3L1656.4,598.3L1656.4,669.3L1648.9,669.3L1648.9,669.4Z" style="fill-rule:nonzero;"/>
            <path d="M1786,625.6L1786,669.4L1778.1,669.4L1778.1,626.8C1778.1,613.5 1770.4,604.5 1758.2,604.5C1745.2,604.5 1737.2,614.9 1737.2,626.8L1737.2,669.4L1729.2,669.4L1729.2,626.8C1729.2,613.5 1721.3,604.5 1709.6,604.5C1696.6,604.5 1688.4,614.9 1688.4,626.8L1688.4,669.4L1680.5,669.4L1680.5,598.4L1687.9,598.4L1687.9,610.6C1691,603.9 1698.7,597.1 1710.8,597.1C1722,597.1 1730.7,603 1734.8,612.5C1738.9,603.5 1747.8,597.1 1759.5,597.1C1775.2,597.1 1786,608.8 1786,625.6Z" style="fill-rule:nonzero;"/>
        </g>
    </g>
</svg>
